<svg width="370" height="115" viewBox="0 0 370 115" fill="none" xmlns="http://www.w3.org/2000/svg">
<path d="M31.7056 59.384C35.9296 59.384 38.9696 58.376 40.8256 56.36C42.6816 54.344 43.6096 51.528 43.6096 47.912C43.6096 46.312 43.3696 44.856 42.8896 43.544C42.4096 42.232 41.6736 41.112 40.6816 40.184C39.7216 39.224 38.4896 38.488 36.9856 37.976C35.5136 37.464 33.7536 37.208 31.7056 37.208H23.2576V59.384H31.7056ZM31.7056 25.064C36.6336 25.064 40.8576 25.656 44.3776 26.84C47.9296 27.992 50.8416 29.592 53.1136 31.64C55.4176 33.688 57.1136 36.104 58.2016 38.888C59.2896 41.672 59.8336 44.68 59.8336 47.912C59.8336 51.4 59.2736 54.6 58.1536 57.512C57.0336 60.424 55.3216 62.92 53.0176 65C50.7136 67.08 47.7856 68.712 44.2336 69.896C40.7136 71.048 36.5376 71.624 31.7056 71.624H23.2576V95H7.03363V25.064H31.7056ZM95.3281 64.136C95.3281 62.952 95.1681 61.8 94.8481 60.68C94.5601 59.56 94.0641 58.568 93.3601 57.704C92.6881 56.808 91.7921 56.088 90.6721 55.544C89.5521 55 88.1921 54.728 86.5921 54.728C83.7761 54.728 81.5681 55.544 79.9681 57.176C78.3681 58.776 77.3121 61.096 76.8001 64.136H95.3281ZM76.6081 72.776C77.0881 76.936 78.3521 79.96 80.4001 81.848C82.4481 83.704 85.0881 84.632 88.3201 84.632C90.0481 84.632 91.5361 84.424 92.7841 84.008C94.0321 83.592 95.1361 83.128 96.0961 82.616C97.0881 82.104 97.9841 81.64 98.7841 81.224C99.6161 80.808 100.48 80.6 101.376 80.6C102.56 80.6 103.456 81.032 104.064 81.896L108.384 87.224C106.848 88.984 105.184 90.424 103.392 91.544C101.632 92.632 99.8081 93.496 97.9201 94.136C96.0641 94.744 94.1921 95.16 92.3041 95.384C90.4481 95.64 88.6721 95.768 86.9761 95.768C83.4881 95.768 80.2081 95.208 77.1361 94.088C74.0961 92.936 71.4241 91.24 69.1201 89C66.8481 86.76 65.0401 83.976 63.6961 80.648C62.3841 77.32 61.7281 73.448 61.7281 69.032C61.7281 65.704 62.2881 62.552 63.4081 59.576C64.5601 56.6 66.1921 53.992 68.3041 51.752C70.4481 49.512 73.0241 47.736 76.0321 46.424C79.0721 45.112 82.4961 44.456 86.3041 44.456C89.6001 44.456 92.6081 44.968 95.3281 45.992C98.0801 47.016 100.432 48.504 102.384 50.456C104.368 52.408 105.904 54.808 106.992 57.656C108.112 60.472 108.672 63.672 108.672 67.256C108.672 68.376 108.624 69.288 108.528 69.992C108.432 70.696 108.256 71.256 108 71.672C107.744 72.088 107.392 72.376 106.944 72.536C106.528 72.696 105.984 72.776 105.312 72.776H76.6081ZM133.27 95.768C130.902 95.768 128.806 95.432 126.982 94.76C125.19 94.056 123.67 93.08 122.422 91.832C121.206 90.552 120.278 89.016 119.638 87.224C118.998 85.432 118.678 83.432 118.678 81.224V55.496H114.454C113.686 55.496 113.03 55.256 112.486 54.776C111.942 54.264 111.67 53.528 111.67 52.568V46.76L119.59 45.224L122.518 33.08C122.902 31.544 123.99 30.776 125.782 30.776H133.558V45.32H145.894V55.496H133.558V80.216C133.558 81.368 133.83 82.328 134.374 83.096C134.95 83.832 135.766 84.2 136.822 84.2C137.366 84.2 137.814 84.152 138.166 84.056C138.55 83.928 138.87 83.8 139.126 83.672C139.414 83.512 139.67 83.384 139.894 83.288C140.15 83.16 140.438 83.096 140.758 83.096C141.206 83.096 141.558 83.208 141.814 83.432C142.102 83.624 142.39 83.944 142.678 84.392L147.19 91.448C145.27 92.888 143.11 93.976 140.71 94.712C138.31 95.416 135.83 95.768 133.27 95.768ZM183.938 56.12C183.554 56.728 183.138 57.16 182.69 57.416C182.274 57.672 181.73 57.8 181.058 57.8C180.354 57.8 179.65 57.656 178.946 57.368C178.242 57.048 177.474 56.712 176.642 56.36C175.842 56.008 174.93 55.688 173.906 55.4C172.882 55.08 171.714 54.92 170.402 54.92C168.514 54.92 167.058 55.288 166.034 56.024C165.042 56.728 164.546 57.72 164.546 59C164.546 59.928 164.866 60.696 165.506 61.304C166.178 61.912 167.058 62.456 168.146 62.936C169.234 63.384 170.466 63.816 171.842 64.232C173.218 64.648 174.626 65.112 176.066 65.624C177.506 66.136 178.914 66.744 180.29 67.448C181.666 68.12 182.898 68.968 183.986 69.992C185.074 70.984 185.938 72.2 186.578 73.64C187.25 75.08 187.586 76.808 187.586 78.824C187.586 81.288 187.138 83.56 186.242 85.64C185.346 87.72 184.002 89.512 182.21 91.016C180.45 92.52 178.258 93.688 175.634 94.52C173.042 95.352 170.05 95.768 166.658 95.768C164.962 95.768 163.266 95.608 161.57 95.288C159.874 94.968 158.226 94.536 156.626 93.992C155.058 93.448 153.602 92.808 152.258 92.072C150.914 91.304 149.762 90.488 148.802 89.624L152.258 84.152C152.642 83.512 153.122 83.016 153.698 82.664C154.306 82.28 155.074 82.088 156.002 82.088C156.866 82.088 157.634 82.28 158.306 82.664C159.01 83.048 159.762 83.464 160.562 83.912C161.362 84.36 162.29 84.776 163.346 85.16C164.434 85.544 165.794 85.736 167.426 85.736C168.578 85.736 169.554 85.624 170.354 85.4C171.154 85.144 171.794 84.808 172.274 84.392C172.754 83.976 173.106 83.512 173.33 83C173.554 82.488 173.666 81.96 173.666 81.416C173.666 80.424 173.33 79.608 172.658 78.968C171.986 78.328 171.106 77.784 170.018 77.336C168.93 76.856 167.682 76.424 166.274 76.04C164.898 75.624 163.49 75.16 162.05 74.648C160.61 74.136 159.186 73.528 157.778 72.824C156.402 72.088 155.17 71.176 154.082 70.088C152.994 68.968 152.114 67.608 151.442 66.008C150.77 64.408 150.434 62.472 150.434 60.2C150.434 58.088 150.834 56.088 151.634 54.2C152.466 52.28 153.698 50.6 155.33 49.16C156.962 47.72 159.01 46.584 161.474 45.752C163.938 44.888 166.818 44.456 170.114 44.456C171.906 44.456 173.634 44.616 175.298 44.936C176.994 45.256 178.578 45.704 180.05 46.28C181.522 46.856 182.866 47.544 184.082 48.344C185.298 49.112 186.37 49.96 187.298 50.888L183.938 56.12ZM212.864 95.768C210.496 95.768 208.4 95.432 206.576 94.76C204.784 94.056 203.264 93.08 202.016 91.832C200.8 90.552 199.872 89.016 199.232 87.224C198.592 85.432 198.272 83.432 198.272 81.224V55.496H194.048C193.28 55.496 192.624 55.256 192.08 54.776C191.536 54.264 191.264 53.528 191.264 52.568V46.76L199.184 45.224L202.112 33.08C202.496 31.544 203.584 30.776 205.376 30.776H213.152V45.32H225.488V55.496H213.152V80.216C213.152 81.368 213.424 82.328 213.968 83.096C214.544 83.832 215.36 84.2 216.416 84.2C216.96 84.2 217.408 84.152 217.76 84.056C218.144 83.928 218.464 83.8 218.72 83.672C219.008 83.512 219.264 83.384 219.488 83.288C219.744 83.16 220.032 83.096 220.352 83.096C220.8 83.096 221.152 83.208 221.408 83.432C221.696 83.624 221.984 83.944 222.272 84.392L226.784 91.448C224.864 92.888 222.704 93.976 220.304 94.712C217.904 95.416 215.424 95.768 212.864 95.768ZM254.375 44.456C258.151 44.456 261.591 45.048 264.695 46.232C267.799 47.416 270.455 49.112 272.663 51.32C274.903 53.528 276.631 56.216 277.847 59.384C279.095 62.52 279.719 66.056 279.719 69.992C279.719 73.96 279.095 77.544 277.847 80.744C276.631 83.912 274.903 86.616 272.663 88.856C270.455 91.064 267.799 92.776 264.695 93.992C261.591 95.176 258.151 95.768 254.375 95.768C250.567 95.768 247.095 95.176 243.959 93.992C240.855 92.776 238.167 91.064 235.895 88.856C233.655 86.616 231.911 83.912 230.663 80.744C229.447 77.544 228.839 73.96 228.839 69.992C228.839 66.056 229.447 62.52 230.663 59.384C231.911 56.216 233.655 53.528 235.895 51.32C238.167 49.112 240.855 47.416 243.959 46.232C247.095 45.048 250.567 44.456 254.375 44.456ZM254.375 84.728C257.799 84.728 260.311 83.528 261.911 81.128C263.543 78.696 264.359 75.016 264.359 70.088C264.359 65.16 263.543 61.496 261.911 59.096C260.311 56.696 257.799 55.496 254.375 55.496C250.855 55.496 248.279 56.696 246.647 59.096C245.015 61.496 244.199 65.16 244.199 70.088C244.199 75.016 245.015 78.696 246.647 81.128C248.279 83.528 250.855 84.728 254.375 84.728ZM301.132 52.904C302.668 50.216 304.428 48.104 306.412 46.568C308.428 45.032 310.732 44.264 313.324 44.264C315.564 44.264 317.388 44.792 318.796 45.848L317.836 56.792C317.676 57.496 317.404 57.976 317.02 58.232C316.668 58.488 316.172 58.616 315.532 58.616C315.276 58.616 314.94 58.6 314.524 58.568C314.108 58.536 313.676 58.504 313.228 58.472C312.78 58.408 312.316 58.36 311.836 58.328C311.388 58.264 310.972 58.232 310.588 58.232C308.412 58.232 306.668 58.808 305.356 59.96C304.076 61.112 302.988 62.712 302.092 64.76V95H287.212V45.224H296.044C296.78 45.224 297.388 45.288 297.868 45.416C298.38 45.544 298.796 45.752 299.116 46.04C299.468 46.296 299.724 46.648 299.884 47.096C300.076 47.544 300.236 48.088 300.364 48.728L301.132 52.904ZM353.984 64.136C353.984 62.952 353.824 61.8 353.504 60.68C353.216 59.56 352.72 58.568 352.016 57.704C351.344 56.808 350.448 56.088 349.328 55.544C348.208 55 346.848 54.728 345.248 54.728C342.432 54.728 340.224 55.544 338.624 57.176C337.024 58.776 335.968 61.096 335.456 64.136H353.984ZM335.264 72.776C335.744 76.936 337.008 79.96 339.056 81.848C341.104 83.704 343.744 84.632 346.976 84.632C348.704 84.632 350.192 84.424 351.44 84.008C352.688 83.592 353.792 83.128 354.752 82.616C355.744 82.104 356.64 81.64 357.44 81.224C358.272 80.808 359.136 80.6 360.032 80.6C361.216 80.6 362.112 81.032 362.72 81.896L367.04 87.224C365.504 88.984 363.84 90.424 362.048 91.544C360.288 92.632 358.464 93.496 356.576 94.136C354.72 94.744 352.848 95.16 350.96 95.384C349.104 95.64 347.328 95.768 345.632 95.768C342.144 95.768 338.864 95.208 335.792 94.088C332.752 92.936 330.08 91.24 327.776 89C325.504 86.76 323.696 83.976 322.352 80.648C321.04 77.32 320.384 73.448 320.384 69.032C320.384 65.704 320.944 62.552 322.064 59.576C323.216 56.6 324.848 53.992 326.96 51.752C329.104 49.512 331.68 47.736 334.688 46.424C337.728 45.112 341.152 44.456 344.96 44.456C348.256 44.456 351.264 44.968 353.984 45.992C356.736 47.016 359.088 48.504 361.04 50.456C363.024 52.408 364.56 54.808 365.648 57.656C366.768 60.472 367.328 63.672 367.328 67.256C367.328 68.376 367.28 69.288 367.184 69.992C367.088 70.696 366.912 71.256 366.656 71.672C366.4 72.088 366.048 72.376 365.6 72.536C365.184 72.696 364.64 72.776 363.968 72.776H335.264Z" fill="#FBAD36"/>
<path d="M200.576 105.845V110H198.041V105.845L194.081 99.0725H196.316C196.536 99.0725 196.709 99.125 196.834 99.23C196.964 99.33 197.071 99.46 197.156 99.62L198.701 102.8C198.831 103.05 198.949 103.285 199.054 103.505C199.159 103.72 199.251 103.932 199.331 104.142C199.406 103.927 199.491 103.712 199.586 103.497C199.686 103.277 199.801 103.045 199.931 102.8L201.461 99.62C201.496 99.555 201.539 99.49 201.589 99.425C201.639 99.36 201.696 99.3025 201.761 99.2525C201.831 99.1975 201.909 99.155 201.994 99.125C202.084 99.09 202.181 99.0725 202.286 99.0725H204.536L200.576 105.845ZM206.962 102.102C207.552 102.102 208.089 102.195 208.574 102.38C209.059 102.565 209.474 102.83 209.819 103.175C210.169 103.52 210.439 103.94 210.629 104.435C210.824 104.925 210.922 105.477 210.922 106.092C210.922 106.712 210.824 107.272 210.629 107.772C210.439 108.267 210.169 108.69 209.819 109.04C209.474 109.385 209.059 109.652 208.574 109.842C208.089 110.027 207.552 110.12 206.962 110.12C206.367 110.12 205.824 110.027 205.334 109.842C204.849 109.652 204.429 109.385 204.074 109.04C203.724 108.69 203.452 108.267 203.257 107.772C203.067 107.272 202.972 106.712 202.972 106.092C202.972 105.477 203.067 104.925 203.257 104.435C203.452 103.94 203.724 103.52 204.074 103.175C204.429 102.83 204.849 102.565 205.334 102.38C205.824 102.195 206.367 102.102 206.962 102.102ZM206.962 108.395C207.497 108.395 207.889 108.207 208.139 107.832C208.394 107.452 208.522 106.877 208.522 106.107C208.522 105.337 208.394 104.765 208.139 104.39C207.889 104.015 207.497 103.827 206.962 103.827C206.412 103.827 206.009 104.015 205.754 104.39C205.499 104.765 205.372 105.337 205.372 106.107C205.372 106.877 205.499 107.452 205.754 107.832C206.009 108.207 206.412 108.395 206.962 108.395ZM219.068 102.222V110H217.628C217.338 110 217.148 109.87 217.058 109.61L216.923 109.16C216.773 109.305 216.618 109.437 216.458 109.557C216.298 109.672 216.125 109.772 215.94 109.857C215.76 109.937 215.563 110 215.348 110.045C215.138 110.095 214.908 110.12 214.658 110.12C214.233 110.12 213.855 110.048 213.525 109.902C213.2 109.752 212.925 109.545 212.7 109.28C212.475 109.015 212.305 108.702 212.19 108.342C212.075 107.982 212.018 107.587 212.018 107.157V102.222H214.343V107.157C214.343 107.542 214.43 107.84 214.605 108.05C214.78 108.26 215.038 108.365 215.378 108.365C215.633 108.365 215.87 108.312 216.09 108.207C216.315 108.097 216.533 107.95 216.743 107.765V102.222H219.068ZM222.822 103.422C223.062 103.002 223.337 102.672 223.647 102.432C223.962 102.192 224.322 102.072 224.727 102.072C225.077 102.072 225.362 102.155 225.582 102.32L225.432 104.03C225.407 104.14 225.365 104.215 225.305 104.255C225.25 104.295 225.172 104.315 225.072 104.315C225.032 104.315 224.98 104.312 224.915 104.307C224.85 104.302 224.782 104.297 224.712 104.292C224.642 104.282 224.57 104.275 224.495 104.27C224.425 104.26 224.36 104.255 224.3 104.255C223.96 104.255 223.687 104.345 223.482 104.525C223.282 104.705 223.112 104.955 222.972 105.275V110H220.647V102.222H222.027C222.142 102.222 222.237 102.232 222.312 102.253C222.392 102.272 222.457 102.305 222.507 102.35C222.562 102.39 222.602 102.445 222.627 102.515C222.657 102.585 222.682 102.67 222.702 102.77L222.822 103.422ZM233.124 102.102C233.714 102.102 234.251 102.195 234.736 102.38C235.221 102.565 235.636 102.83 235.981 103.175C236.331 103.52 236.601 103.94 236.791 104.435C236.986 104.925 237.084 105.477 237.084 106.092C237.084 106.712 236.986 107.272 236.791 107.772C236.601 108.267 236.331 108.69 235.981 109.04C235.636 109.385 235.221 109.652 234.736 109.842C234.251 110.027 233.714 110.12 233.124 110.12C232.529 110.12 231.986 110.027 231.496 109.842C231.011 109.652 230.591 109.385 230.236 109.04C229.886 108.69 229.614 108.267 229.419 107.772C229.229 107.272 229.134 106.712 229.134 106.092C229.134 105.477 229.229 104.925 229.419 104.435C229.614 103.94 229.886 103.52 230.236 103.175C230.591 102.83 231.011 102.565 231.496 102.38C231.986 102.195 232.529 102.102 233.124 102.102ZM233.124 108.395C233.659 108.395 234.051 108.207 234.301 107.832C234.556 107.452 234.684 106.877 234.684 106.107C234.684 105.337 234.556 104.765 234.301 104.39C234.051 104.015 233.659 103.827 233.124 103.827C232.574 103.827 232.171 104.015 231.916 104.39C231.661 104.765 231.534 105.337 231.534 106.107C231.534 106.877 231.661 107.452 231.916 107.832C232.171 108.207 232.574 108.395 233.124 108.395ZM240.4 103.062C240.55 102.922 240.705 102.792 240.865 102.672C241.025 102.552 241.195 102.452 241.375 102.372C241.56 102.287 241.757 102.222 241.967 102.177C242.182 102.127 242.415 102.102 242.665 102.102C243.09 102.102 243.465 102.177 243.79 102.327C244.12 102.472 244.397 102.677 244.622 102.942C244.847 103.202 245.017 103.515 245.132 103.88C245.247 104.24 245.305 104.632 245.305 105.057V110H242.98V105.057C242.98 104.677 242.892 104.382 242.717 104.172C242.542 103.957 242.285 103.85 241.945 103.85C241.69 103.85 241.45 103.905 241.225 104.015C241.005 104.12 240.79 104.265 240.58 104.45V110H238.255V102.222H239.695C239.985 102.222 240.175 102.352 240.265 102.612L240.4 103.062ZM251.647 105.177C251.647 104.992 251.622 104.812 251.572 104.637C251.527 104.462 251.449 104.307 251.339 104.172C251.234 104.032 251.094 103.92 250.919 103.835C250.744 103.75 250.532 103.707 250.282 103.707C249.842 103.707 249.497 103.835 249.247 104.09C248.997 104.34 248.832 104.702 248.752 105.177H251.647ZM248.722 106.527C248.797 107.177 248.994 107.65 249.314 107.945C249.634 108.235 250.047 108.38 250.552 108.38C250.822 108.38 251.054 108.347 251.249 108.282C251.444 108.217 251.617 108.145 251.767 108.065C251.922 107.985 252.062 107.912 252.187 107.847C252.317 107.782 252.452 107.75 252.592 107.75C252.777 107.75 252.917 107.817 253.012 107.952L253.687 108.785C253.447 109.06 253.187 109.285 252.907 109.46C252.632 109.63 252.347 109.765 252.052 109.865C251.762 109.96 251.469 110.025 251.174 110.06C250.884 110.1 250.607 110.12 250.342 110.12C249.797 110.12 249.284 110.033 248.804 109.857C248.329 109.677 247.912 109.412 247.552 109.062C247.197 108.712 246.914 108.277 246.704 107.757C246.499 107.237 246.397 106.632 246.397 105.942C246.397 105.422 246.484 104.93 246.659 104.465C246.839 104 247.094 103.592 247.424 103.242C247.759 102.892 248.162 102.615 248.632 102.41C249.107 102.205 249.642 102.102 250.237 102.102C250.752 102.102 251.222 102.182 251.647 102.342C252.077 102.502 252.444 102.735 252.749 103.04C253.059 103.345 253.299 103.72 253.469 104.165C253.644 104.605 253.732 105.105 253.732 105.665C253.732 105.84 253.724 105.982 253.709 106.092C253.694 106.202 253.667 106.29 253.627 106.355C253.587 106.42 253.532 106.465 253.462 106.49C253.397 106.515 253.312 106.527 253.207 106.527H248.722ZM263.31 103.925C263.25 104.02 263.185 104.087 263.115 104.127C263.05 104.167 262.965 104.187 262.86 104.187C262.75 104.187 262.64 104.165 262.53 104.12C262.42 104.07 262.3 104.017 262.17 103.962C262.045 103.907 261.902 103.857 261.742 103.812C261.582 103.762 261.4 103.737 261.195 103.737C260.9 103.737 260.672 103.795 260.512 103.91C260.357 104.02 260.28 104.175 260.28 104.375C260.28 104.52 260.33 104.64 260.43 104.735C260.535 104.83 260.672 104.915 260.842 104.99C261.012 105.06 261.205 105.127 261.42 105.192C261.635 105.257 261.855 105.33 262.08 105.41C262.305 105.49 262.525 105.585 262.74 105.695C262.955 105.8 263.147 105.932 263.317 106.092C263.487 106.247 263.622 106.437 263.722 106.662C263.827 106.887 263.88 107.157 263.88 107.472C263.88 107.857 263.81 108.212 263.67 108.537C263.53 108.862 263.32 109.142 263.04 109.377C262.765 109.612 262.422 109.795 262.012 109.925C261.607 110.055 261.14 110.12 260.61 110.12C260.345 110.12 260.08 110.095 259.815 110.045C259.55 109.995 259.292 109.927 259.042 109.842C258.797 109.757 258.57 109.657 258.36 109.542C258.15 109.422 257.97 109.295 257.82 109.16L258.36 108.305C258.42 108.205 258.495 108.127 258.585 108.073C258.68 108.012 258.8 107.982 258.945 107.982C259.08 107.982 259.2 108.012 259.305 108.073C259.415 108.132 259.532 108.197 259.657 108.267C259.782 108.337 259.927 108.402 260.092 108.462C260.262 108.522 260.475 108.552 260.73 108.552C260.91 108.552 261.062 108.535 261.187 108.5C261.312 108.46 261.412 108.407 261.487 108.342C261.562 108.277 261.617 108.205 261.652 108.125C261.687 108.045 261.705 107.962 261.705 107.877C261.705 107.722 261.652 107.595 261.547 107.495C261.442 107.395 261.305 107.31 261.135 107.24C260.965 107.165 260.77 107.097 260.55 107.037C260.335 106.972 260.115 106.9 259.89 106.82C259.665 106.74 259.442 106.645 259.222 106.535C259.007 106.42 258.815 106.277 258.645 106.107C258.475 105.932 258.337 105.72 258.232 105.47C258.127 105.22 258.075 104.917 258.075 104.562C258.075 104.232 258.137 103.92 258.262 103.625C258.392 103.325 258.585 103.062 258.84 102.837C259.095 102.612 259.415 102.435 259.8 102.305C260.185 102.17 260.635 102.102 261.15 102.102C261.43 102.102 261.7 102.127 261.96 102.177C262.225 102.227 262.472 102.297 262.702 102.387C262.932 102.477 263.142 102.585 263.332 102.71C263.522 102.83 263.69 102.962 263.835 103.107L263.31 103.925ZM267.829 110.12C267.459 110.12 267.132 110.068 266.847 109.962C266.567 109.852 266.329 109.7 266.134 109.505C265.944 109.305 265.799 109.065 265.699 108.785C265.599 108.505 265.549 108.192 265.549 107.847V103.827H264.889C264.769 103.827 264.667 103.79 264.582 103.715C264.497 103.635 264.454 103.52 264.454 103.37V102.463L265.692 102.222L266.149 100.325C266.209 100.085 266.379 99.965 266.659 99.965H267.874V102.237H269.802V103.827H267.874V107.69C267.874 107.87 267.917 108.02 268.002 108.14C268.092 108.255 268.219 108.312 268.384 108.312C268.469 108.312 268.539 108.305 268.594 108.29C268.654 108.27 268.704 108.25 268.744 108.23C268.789 108.205 268.829 108.185 268.864 108.17C268.904 108.15 268.949 108.14 268.999 108.14C269.069 108.14 269.124 108.157 269.164 108.192C269.209 108.222 269.254 108.272 269.299 108.342L270.004 109.445C269.704 109.67 269.367 109.84 268.992 109.955C268.617 110.065 268.229 110.12 267.829 110.12ZM274.315 102.102C274.905 102.102 275.443 102.195 275.928 102.38C276.413 102.565 276.828 102.83 277.173 103.175C277.523 103.52 277.793 103.94 277.983 104.435C278.178 104.925 278.275 105.477 278.275 106.092C278.275 106.712 278.178 107.272 277.983 107.772C277.793 108.267 277.523 108.69 277.173 109.04C276.828 109.385 276.413 109.652 275.928 109.842C275.443 110.027 274.905 110.12 274.315 110.12C273.72 110.12 273.178 110.027 272.688 109.842C272.203 109.652 271.783 109.385 271.428 109.04C271.078 108.69 270.805 108.267 270.61 107.772C270.42 107.272 270.325 106.712 270.325 106.092C270.325 105.477 270.42 104.925 270.61 104.435C270.805 103.94 271.078 103.52 271.428 103.175C271.783 102.83 272.203 102.565 272.688 102.38C273.178 102.195 273.72 102.102 274.315 102.102ZM274.315 108.395C274.85 108.395 275.243 108.207 275.493 107.832C275.748 107.452 275.875 106.877 275.875 106.107C275.875 105.337 275.748 104.765 275.493 104.39C275.243 104.015 274.85 103.827 274.315 103.827C273.765 103.827 273.363 104.015 273.108 104.39C272.853 104.765 272.725 105.337 272.725 106.107C272.725 106.877 272.853 107.452 273.108 107.832C273.363 108.207 273.765 108.395 274.315 108.395ZM281.771 107.885C281.946 108.075 282.136 108.21 282.341 108.29C282.546 108.37 282.761 108.41 282.986 108.41C283.201 108.41 283.399 108.367 283.579 108.282C283.759 108.197 283.914 108.062 284.044 107.877C284.179 107.687 284.284 107.442 284.359 107.142C284.434 106.842 284.471 106.477 284.471 106.047C284.471 105.637 284.441 105.292 284.381 105.012C284.321 104.732 284.236 104.507 284.126 104.337C284.021 104.162 283.894 104.037 283.744 103.962C283.594 103.887 283.426 103.85 283.241 103.85C282.901 103.85 282.621 103.912 282.401 104.037C282.181 104.162 281.971 104.345 281.771 104.585V107.885ZM281.629 103.182C281.934 102.857 282.279 102.592 282.664 102.387C283.054 102.177 283.516 102.072 284.051 102.072C284.456 102.072 284.831 102.162 285.176 102.342C285.521 102.522 285.819 102.782 286.069 103.122C286.319 103.462 286.514 103.88 286.654 104.375C286.799 104.865 286.871 105.422 286.871 106.047C286.871 106.632 286.789 107.172 286.624 107.667C286.464 108.162 286.236 108.592 285.941 108.957C285.651 109.322 285.301 109.608 284.891 109.812C284.486 110.018 284.036 110.12 283.541 110.12C283.136 110.12 282.796 110.063 282.521 109.947C282.246 109.832 281.996 109.677 281.771 109.482V112.468H279.446V102.222H280.886C281.176 102.222 281.366 102.352 281.456 102.612L281.629 103.182ZM296.488 103.925C296.428 104.02 296.363 104.087 296.293 104.127C296.228 104.167 296.143 104.187 296.038 104.187C295.928 104.187 295.818 104.165 295.708 104.12C295.598 104.07 295.478 104.017 295.348 103.962C295.223 103.907 295.081 103.857 294.921 103.812C294.761 103.762 294.578 103.737 294.373 103.737C294.078 103.737 293.851 103.795 293.691 103.91C293.536 104.02 293.458 104.175 293.458 104.375C293.458 104.52 293.508 104.64 293.608 104.735C293.713 104.83 293.851 104.915 294.021 104.99C294.191 105.06 294.383 105.127 294.598 105.192C294.813 105.257 295.033 105.33 295.258 105.41C295.483 105.49 295.703 105.585 295.918 105.695C296.133 105.8 296.326 105.932 296.496 106.092C296.666 106.247 296.801 106.437 296.901 106.662C297.006 106.887 297.058 107.157 297.058 107.472C297.058 107.857 296.988 108.212 296.848 108.537C296.708 108.862 296.498 109.142 296.218 109.377C295.943 109.612 295.601 109.795 295.191 109.925C294.786 110.055 294.318 110.12 293.788 110.12C293.523 110.12 293.258 110.095 292.993 110.045C292.728 109.995 292.471 109.927 292.221 109.842C291.976 109.757 291.748 109.657 291.538 109.542C291.328 109.422 291.148 109.295 290.998 109.16L291.538 108.305C291.598 108.205 291.673 108.127 291.763 108.073C291.858 108.012 291.978 107.982 292.123 107.982C292.258 107.982 292.378 108.012 292.483 108.073C292.593 108.132 292.711 108.197 292.836 108.267C292.961 108.337 293.106 108.402 293.271 108.462C293.441 108.522 293.653 108.552 293.908 108.552C294.088 108.552 294.241 108.535 294.366 108.5C294.491 108.46 294.591 108.407 294.666 108.342C294.741 108.277 294.796 108.205 294.831 108.125C294.866 108.045 294.883 107.962 294.883 107.877C294.883 107.722 294.831 107.595 294.726 107.495C294.621 107.395 294.483 107.31 294.313 107.24C294.143 107.165 293.948 107.097 293.728 107.037C293.513 106.972 293.293 106.9 293.068 106.82C292.843 106.74 292.621 106.645 292.401 106.535C292.186 106.42 291.993 106.277 291.823 106.107C291.653 105.932 291.516 105.72 291.411 105.47C291.306 105.22 291.253 104.917 291.253 104.562C291.253 104.232 291.316 103.92 291.441 103.625C291.571 103.325 291.763 103.062 292.018 102.837C292.273 102.612 292.593 102.435 292.978 102.305C293.363 102.17 293.813 102.102 294.328 102.102C294.608 102.102 294.878 102.127 295.138 102.177C295.403 102.227 295.651 102.297 295.881 102.387C296.111 102.477 296.321 102.585 296.511 102.71C296.701 102.83 296.868 102.962 297.013 103.107L296.488 103.925ZM300.55 102.905C300.83 102.665 301.133 102.472 301.458 102.327C301.788 102.177 302.18 102.102 302.635 102.102C303.06 102.102 303.435 102.177 303.76 102.327C304.09 102.472 304.368 102.677 304.593 102.942C304.818 103.202 304.988 103.515 305.103 103.88C305.218 104.24 305.275 104.632 305.275 105.057V110H302.95V105.057C302.95 104.677 302.863 104.382 302.688 104.172C302.513 103.957 302.255 103.85 301.915 103.85C301.66 103.85 301.42 103.905 301.195 104.015C300.975 104.12 300.76 104.265 300.55 104.45V110H298.225V98.7725H300.55V102.905ZM310.365 102.102C310.955 102.102 311.493 102.195 311.978 102.38C312.463 102.565 312.878 102.83 313.223 103.175C313.573 103.52 313.843 103.94 314.033 104.435C314.228 104.925 314.325 105.477 314.325 106.092C314.325 106.712 314.228 107.272 314.033 107.772C313.843 108.267 313.573 108.69 313.223 109.04C312.878 109.385 312.463 109.652 311.978 109.842C311.493 110.027 310.955 110.12 310.365 110.12C309.77 110.12 309.228 110.027 308.738 109.842C308.253 109.652 307.833 109.385 307.478 109.04C307.128 108.69 306.855 108.267 306.66 107.772C306.47 107.272 306.375 106.712 306.375 106.092C306.375 105.477 306.47 104.925 306.66 104.435C306.855 103.94 307.128 103.52 307.478 103.175C307.833 102.83 308.253 102.565 308.738 102.38C309.228 102.195 309.77 102.102 310.365 102.102ZM310.365 108.395C310.9 108.395 311.293 108.207 311.543 107.832C311.798 107.452 311.925 106.877 311.925 106.107C311.925 105.337 311.798 104.765 311.543 104.39C311.293 104.015 310.9 103.827 310.365 103.827C309.815 103.827 309.413 104.015 309.158 104.39C308.903 104.765 308.775 105.337 308.775 106.107C308.775 106.877 308.903 107.452 309.158 107.832C309.413 108.207 309.815 108.395 310.365 108.395ZM317.821 107.885C317.996 108.075 318.186 108.21 318.391 108.29C318.596 108.37 318.811 108.41 319.036 108.41C319.251 108.41 319.448 108.367 319.628 108.282C319.808 108.197 319.963 108.062 320.093 107.877C320.228 107.687 320.333 107.442 320.408 107.142C320.483 106.842 320.521 106.477 320.521 106.047C320.521 105.637 320.491 105.292 320.431 105.012C320.371 104.732 320.286 104.507 320.176 104.337C320.071 104.162 319.943 104.037 319.793 103.962C319.643 103.887 319.476 103.85 319.291 103.85C318.951 103.85 318.671 103.912 318.451 104.037C318.231 104.162 318.021 104.345 317.821 104.585V107.885ZM317.678 103.182C317.983 102.857 318.328 102.592 318.713 102.387C319.103 102.177 319.566 102.072 320.101 102.072C320.506 102.072 320.881 102.162 321.226 102.342C321.571 102.522 321.868 102.782 322.118 103.122C322.368 103.462 322.563 103.88 322.703 104.375C322.848 104.865 322.921 105.422 322.921 106.047C322.921 106.632 322.838 107.172 322.673 107.667C322.513 108.162 322.286 108.592 321.991 108.957C321.701 109.322 321.351 109.608 320.941 109.812C320.536 110.018 320.086 110.12 319.591 110.12C319.186 110.12 318.846 110.063 318.571 109.947C318.296 109.832 318.046 109.677 317.821 109.482V112.468H315.496V102.222H316.936C317.226 102.222 317.416 102.352 317.506 102.612L317.678 103.182ZM326.621 99.0725V103.362C326.621 103.822 326.594 104.28 326.539 104.735C326.484 105.185 326.411 105.645 326.321 106.115H324.746C324.656 105.645 324.584 105.185 324.529 104.735C324.474 104.28 324.446 103.822 324.446 103.362V99.0725H326.621ZM324.191 108.822C324.191 108.642 324.224 108.475 324.289 108.32C324.359 108.165 324.451 108.03 324.566 107.915C324.686 107.8 324.826 107.71 324.986 107.645C325.146 107.575 325.321 107.54 325.511 107.54C325.696 107.54 325.869 107.575 326.029 107.645C326.189 107.71 326.329 107.8 326.449 107.915C326.569 108.03 326.661 108.165 326.726 108.32C326.796 108.475 326.831 108.642 326.831 108.822C326.831 109.002 326.796 109.172 326.726 109.332C326.661 109.487 326.569 109.622 326.449 109.737C326.329 109.852 326.189 109.942 326.029 110.008C325.869 110.073 325.696 110.105 325.511 110.105C325.321 110.105 325.146 110.073 324.986 110.008C324.826 109.942 324.686 109.852 324.566 109.737C324.451 109.622 324.359 109.487 324.289 109.332C324.224 109.172 324.191 109.002 324.191 108.822Z" fill="#85A0FE"/>
</svg>
